<svg width="30" height="30" viewBox="0 0 30 30" fill="none" xmlns="http://www.w3.org/2000/svg">
<g id="1f3db 2" clip-path="url(#clip0_6687_1630)">
<path id="Vector" d="M25.4029 14.3362H4.59741V26.2884H25.4029V14.3362Z" fill="url(#paint0_linear_6687_1630)"/>
<path id="Vector_2" d="M29.0625 28.1836H0.9375V29.0625H29.0625V28.1836Z" fill="#CFD8DD"/>
<path id="Vector_3" d="M27.4219 26.4258H2.57812V27.3047H27.4219V26.4258Z" fill="#CFD8DD"/>
<path id="Vector_4" d="M28.2422 27.3047H1.75781V28.1836H28.2422V27.3047Z" fill="#E6EBEF"/>
<path id="Vector_5" d="M26.6016 25.5469H3.39844V26.4258H26.6016V25.5469Z" fill="#E6EBEF"/>
<path id="Vector_6" d="M27.7444 13.0172H2.2561V13.8971H27.7444V13.0172Z" fill="#99A8AE"/>
<path id="Vector_7" d="M29.0625 13.8965H0.9375V14.7764H29.0625V13.8965Z" fill="#CFD8DD"/>
<path id="Vector_8" d="M14.9944 2.26877L0.9375 9.95439L2.115 11.7141L14.9944 3.13642L27.885 11.7141L29.0625 9.95439L14.9944 2.26877Z" fill="#99A8AE"/>
<path id="Vector_9" d="M14.9944 0.9375L0.9375 9.95438V11.2739L14.9944 2.25656L29.0625 11.2739V9.95438L14.9944 0.9375Z" fill="#CFD8DD"/>
<path id="Vector_10" d="M14.9944 3.13638L0.9375 12.1537V13.0336H29.0625V12.1537L14.9944 3.13638Z" fill="#CFD8DD"/>
<path id="Vector_11" d="M14.9943 4.44467L3.31964 12.1537H26.6803L14.9943 4.44467Z" fill="#E6EBEF"/>
<path id="Vector_12" d="M6.79688 15.5611H3.98438V24.7266H6.79688V15.5611Z" fill="#E6EBEF"/>
<path id="Vector_13" d="M7.14844 24.7266H3.63281V25.5469H7.14844V24.7266Z" fill="#CFD8DD"/>
<path id="Vector_14" d="M7.14844 14.7656H3.63281V15.5611H7.14844V14.7656Z" fill="#CFD8DD"/>
<path id="Vector_15" d="M4.59695 15.9281H4.26508V24.3839H4.59695V15.9281Z" fill="#C8D0D6"/>
<path id="Vector_16" d="M6.51571 15.9281H6.18384V24.3839H6.51571V15.9281Z" fill="#C8D0D6"/>
<path id="Vector_17" d="M5.87584 15.9281H5.54443V24.3839H5.87584V15.9281Z" fill="#C8D0D6"/>
<path id="Vector_18" d="M5.23631 15.9281H4.90491V24.3839H5.23631V15.9281Z" fill="#C8D0D6"/>
<path id="Vector_19" d="M13.2028 15.5611H10.3903V24.7556H13.2028V15.5611Z" fill="#E6EBEF"/>
<path id="Vector_20" d="M13.5544 24.7561H10.0388V25.5474H13.5544V24.7561Z" fill="#CFD8DD"/>
<path id="Vector_21" d="M13.5544 14.7656H10.0388V15.5611H13.5544V14.7656Z" fill="#CFD8DD"/>
<path id="Vector_22" d="M11.0029 15.9281H10.6715V24.3839H11.0029V15.9281Z" fill="#C8D0D6"/>
<path id="Vector_23" d="M12.9216 15.9281H12.5902V24.3839H12.9216V15.9281Z" fill="#C8D0D6"/>
<path id="Vector_24" d="M12.2823 15.9281H11.9504V24.3839H12.2823V15.9281Z" fill="#C8D0D6"/>
<path id="Vector_25" d="M11.6428 15.9281H11.311V24.3839H11.6428V15.9281Z" fill="#C8D0D6"/>
<path id="Vector_26" d="M19.6093 15.5611H16.7968V24.7556H19.6093V15.5611Z" fill="#E6EBEF"/>
<path id="Vector_27" d="M19.9608 24.7561H16.4452V25.5474H19.9608V24.7561Z" fill="#CFD8DD"/>
<path id="Vector_28" d="M19.9608 14.7656H16.4452V15.5611H19.9608V14.7656Z" fill="#CFD8DD"/>
<path id="Vector_29" d="M17.4093 15.9281H17.0779V24.3839H17.4093V15.9281Z" fill="#C8D0D6"/>
<path id="Vector_30" d="M19.328 15.9281H18.9966V24.3839H19.328V15.9281Z" fill="#C8D0D6"/>
<path id="Vector_31" d="M18.6887 15.9281H18.3568V24.3839H18.6887V15.9281Z" fill="#C8D0D6"/>
<path id="Vector_32" d="M18.0492 15.9281H17.7173V24.3839H18.0492V15.9281Z" fill="#C8D0D6"/>
<path id="Vector_33" d="M26.0156 15.5611H23.2031V24.7266H26.0156V15.5611Z" fill="#E6EBEF"/>
<path id="Vector_34" d="M26.3672 24.7266H22.8516V25.5469H26.3672V24.7266Z" fill="#CFD8DD"/>
<path id="Vector_35" d="M26.3672 14.7656H22.8516V15.5611H26.3672V14.7656Z" fill="#CFD8DD"/>
<path id="Vector_36" d="M23.8157 15.9281H23.4838V24.3839H23.8157V15.9281Z" fill="#C8D0D6"/>
<path id="Vector_37" d="M25.7345 15.9281H25.4026V24.3839H25.7345V15.9281Z" fill="#C8D0D6"/>
<path id="Vector_38" d="M25.0946 15.9281H24.7632V24.3839H25.0946V15.9281Z" fill="#C8D0D6"/>
<path id="Vector_39" d="M24.4551 15.9281H24.1237V24.3839H24.4551V15.9281Z" fill="#C8D0D6"/>
</g>
<defs>
<linearGradient id="paint0_linear_6687_1630" x1="15.0001" y1="26.2884" x2="15.0001" y2="14.3365" gradientUnits="userSpaceOnUse">
<stop stop-color="#5B666E"/>
<stop offset="0.2385" stop-color="#565F68"/>
<stop offset="0.5791" stop-color="#484C58"/>
<stop offset="0.9795" stop-color="#312E3D"/>
<stop offset="1" stop-color="#302C3B"/>
</linearGradient>
<clipPath id="clip0_6687_1630">
<rect width="30" height="30" fill="white"/>
</clipPath>
</defs>
</svg>
