<svg width="28" height="28" viewBox="0 0 28 28" fill="none" xmlns="http://www.w3.org/2000/svg">
<g id="Icon_invite">
<g id="Group">
<path id="Vector" d="M26.7772 9.60855C26.6044 9.43576 21.5711 4.40277 21.3914 4.22308C21.0943 3.92595 20.6127 3.92564 20.3152 4.22216L18.3209 6.20974C18.1504 6.21187 15.577 5.27508 13.4597 7.39239L8.12835 12.7237C7.83091 13.0212 7.83091 13.5034 8.12835 13.8008C9.61336 15.2859 12.0291 15.2849 13.5132 13.8008L14.2957 13.0183C15.609 13.8181 17.2751 13.7442 18.5106 12.8458L21.6124 15.9477C21.9399 16.2752 22.1999 16.6525 22.3857 17.0612C23.4281 15.8299 24.1938 14.39 24.6355 12.82L26.7762 10.687C27.0758 10.3874 27.0733 9.90558 26.7772 9.60855Z" fill="white"/>
<path id="Vector_2" d="M18.2342 14.7242C17.0817 15.1802 15.8037 15.2167 14.6308 14.837C11.8783 16.6836 9.41365 17.2411 7.0506 14.8781C6.15798 13.9855 6.15747 12.5399 7.0506 11.6468L11.9372 6.76022L9.7244 6.33524L7.68528 4.29511C7.38723 3.99706 6.90487 3.99858 6.60784 4.29511L1.22216 9.68078C0.925132 9.97832 0.925132 10.4607 1.22216 10.7582C2.55043 12.086 3.53597 13.793 3.99802 15.5635C4.03051 15.6387 4.73628 19.1553 7.89904 21.8225L10.2479 23.8043C11.5508 24.9041 13.3985 24.9919 14.7907 24.0785L20.1713 20.5511C21.3825 19.7583 21.5601 18.0506 20.5343 17.0248L18.2342 14.7242Z" fill="white"/>
</g>
</g>
</svg>
