<svg width="44" height="44" viewBox="0 0 44 44" fill="none" xmlns="http://www.w3.org/2000/svg">
<g id="Icon_algorand">
<circle id="base" cx="22" cy="22" r="22" fill="#EDF0F4"/>
<path id="Vector" d="M12.9894 32L16.3274 26.2399L19.6655 20.5L22.9832 14.7399L23.5327 13.8272L23.777 14.7399L24.7947 18.5326L23.6549 20.5L20.3168 26.2399L16.9991 32H20.9885L24.3265 26.2399L26.0566 23.2584L26.8708 26.2399L28.4177 32H32L30.4531 26.2399L28.9062 20.5L28.4991 19.0194L30.9823 14.7399H27.3593L27.2372 14.3139L25.9752 9.60847L25.8124 9H22.3319L22.2504 9.12169L18.9938 14.7399L15.6558 20.5L12.3381 26.2399L9 32H12.9894Z" fill="black"/>
</g>
</svg>
