<svg width="32" height="32" viewBox="0 0 32 32" fill="none" xmlns="http://www.w3.org/2000/svg">
<g id="Icon_prof">
<path id="Vector" d="M16 31C24.2843 31 31 24.2843 31 16C31 7.71573 24.2843 1 16 1C7.71573 1 1 7.71573 1 16C1 24.2843 7.71573 31 16 31Z" fill="url(#paint0_linear_6687_1624)"/>
<path id="Vector_2" d="M18.0615 10.407C16.883 11.0095 15.1155 11.0095 13.937 10.407C12.678 9.74651 11.141 9.32251 9.30004 9.15751C7.50354 8.99601 3.69254 9.00151 1.78654 9.68851C1.56754 9.76651 1.35354 9.86801 1.14504 9.97701C1.02804 10.0385 1.00404 10.083 1.00404 10.307V10.5965C1.00404 11.1405 0.937543 10.9295 1.31754 11.156C2.05754 11.5995 2.47804 12.7505 2.70304 14.335C3.02404 16.6455 4.13054 18.0925 5.92954 18.784C7.59854 19.4235 9.46504 19.402 11.1215 18.7265C12.027 18.356 12.8215 17.7705 13.4535 16.82C14.5625 15.154 14.23 14.1145 14.801 12.6835C15.299 11.434 16.6985 11.434 17.1975 12.6835C17.77 14.1145 17.4375 15.154 18.545 16.82C19.176 17.77 19.972 18.3555 20.878 18.7265C22.5335 19.4025 24.4 19.424 26.069 18.784C27.8675 18.092 28.9755 16.6455 29.296 14.335C29.5205 12.7505 29.9415 11.5995 30.6815 11.156C31.0615 10.9295 30.995 11.141 30.995 10.5965V10.307C30.995 10.083 30.9705 10.038 30.854 9.97701C30.6465 9.86801 30.4305 9.76651 30.213 9.68851C28.3065 9.00151 24.496 8.99551 22.7 9.15751C20.858 9.32251 19.32 9.74651 18.0615 10.407Z" fill="url(#paint1_linear_6687_1624)"/>
<path id="Vector_3" opacity="0.3" d="M18.849 11.4215C18.132 12.0575 18.783 16.661 20.959 17.513C22.3165 18.0445 24.9855 18.366 26.83 16.74C28.3405 15.4085 28.667 11.377 27.593 10.7505C26.413 10.0615 20.382 10.0615 18.849 11.4215Z" fill="url(#paint2_linear_6687_1624)"/>
<path id="Vector_4" opacity="0.3" d="M13.245 11.423C13.962 12.059 13.311 16.663 11.1355 17.514C9.77746 18.0455 7.10846 18.368 5.26346 16.741C3.75296 15.41 3.42696 11.379 4.50046 10.7515C5.68046 10.0625 11.7115 10.0625 13.245 11.423Z" fill="url(#paint3_linear_6687_1624)"/>
<path id="Vector_5" d="M12.3294 25.0015C16.2044 26.0045 20.9659 24.4935 22.9759 21.3495C23.1404 21.0915 22.8844 20.818 22.6259 21.0225C20.5254 22.6805 16.0664 23.915 12.8014 22.9605C11.5514 22.5945 11.0079 24.659 12.3294 25.0015Z" fill="#1A1626"/>
</g>
<defs>
<linearGradient id="paint0_linear_6687_1624" x1="16" y1="31" x2="16" y2="1.00025" gradientUnits="userSpaceOnUse">
<stop stop-color="#FF9500"/>
<stop offset="0.0934" stop-color="#FF9F03"/>
<stop offset="0.4902" stop-color="#FFC710"/>
<stop offset="0.8062" stop-color="#FFDF17"/>
<stop offset="1" stop-color="#FFE81A"/>
</linearGradient>
<linearGradient id="paint1_linear_6687_1624" x1="16.0003" y1="19.249" x2="16.0003" y2="9.07081" gradientUnits="userSpaceOnUse">
<stop stop-color="#1A1626"/>
<stop offset="0.4251" stop-color="#1F1B2B"/>
<stop offset="0.9255" stop-color="#2D2938"/>
<stop offset="1" stop-color="#302C3B"/>
</linearGradient>
<linearGradient id="paint2_linear_6687_1624" x1="23.3969" y1="17.9443" x2="23.3969" y2="10.2966" gradientUnits="userSpaceOnUse">
<stop stop-color="#708694"/>
<stop offset="1" stop-color="#C2DFF0"/>
</linearGradient>
<linearGradient id="paint3_linear_6687_1624" x1="8.69696" y1="17.9463" x2="8.69696" y2="10.2981" gradientUnits="userSpaceOnUse">
<stop stop-color="#708694"/>
<stop offset="1" stop-color="#C2DFF0"/>
</linearGradient>
</defs>
</svg>
