<svg width="28" height="28" viewBox="0 0 28 28" fill="none" xmlns="http://www.w3.org/2000/svg">
<g id="Icon_dao">
<g id="Group">
<path id="Vector" d="M22.8431 18.0981C22.8431 17.0856 22.0223 16.2648 21.0098 16.2648H19.1315L20.4526 11.7353H23.1667C24.1792 11.7353 25 10.9145 25 9.90201C25 8.88949 24.1792 8.06867 23.1667 8.06867H21.522L22.3285 5.30349C22.6707 4.1302 21.7908 2.95691 20.5686 2.95691C19.7538 2.95691 19.0367 3.49466 18.8086 4.27687L17.7026 8.06867H13.7573L14.5638 5.30349C14.906 4.1302 14.0261 2.95691 12.8038 2.95691C11.9891 2.95691 11.272 3.49466 11.0439 4.27687L9.93794 8.06867H6.9902C5.97768 8.06867 5.15686 8.88949 5.15686 9.90201C5.15686 10.9145 5.97768 11.7353 6.9902 11.7353H8.86852L7.54744 16.2648H4.83333C3.82082 16.2648 3 17.0856 3 18.0981C3 19.1106 3.82082 19.9314 4.83333 19.9314H6.47798L5.67149 22.6966C5.32928 23.8699 6.20924 25.0432 7.43145 25.0432C8.24622 25.0432 8.96325 24.5054 9.1914 23.7232L10.2974 19.9314H14.2427L13.4362 22.6966C13.094 23.8699 13.9739 25.0432 15.1961 25.0432C16.0109 25.0432 16.7279 24.5054 16.9561 23.7232L18.062 19.9314H21.0098C22.0223 19.9314 22.8431 19.1106 22.8431 18.0981ZM15.3121 16.2648H11.3668L12.6879 11.7353H16.6332L15.3121 16.2648Z" fill="white"/>
</g>
</g>
</svg>
