<svg width="32" height="32" viewBox="0 0 32 32" fill="none" xmlns="http://www.w3.org/2000/svg">
<g id="Icon_startup">
<path id="Vector" d="M10.382 4.65549C10.2945 3.89499 15.1885 6.84149 15.3865 11.901C15.403 12.226 13.108 11.927 11.706 10.798C11.7055 10.798 10.695 7.41999 10.382 4.65549Z" fill="#CFD8DD"/>
<path id="Vector_2" d="M10.752 5.69001C10.702 5.15601 13.972 7.80451 14.054 11.3105C14.0615 11.536 12.517 11.0385 11.5825 10.0845C11.582 10.0845 10.935 7.63201 10.752 5.69001Z" fill="#6E8189"/>
<path id="Vector_3" d="M7.61847 10.102L9.72347 12.9975C11.4265 12.8045 12.8155 11.4065 13.0175 9.7085L10.16 7.6375C9.18497 8.192 7.61847 10.102 7.61847 10.102Z" fill="url(#paint0_radial_6687_1589)"/>
<path id="Vector_4" d="M6.22656 8.189L8.51306 11.333C8.51306 11.333 9.70706 8.9905 11.3486 8.4995L8.23356 6.2415C7.47806 6.739 6.22656 8.189 6.22656 8.189Z" fill="url(#paint1_radial_6687_1589)"/>
<path id="Vector_5" d="M4.849 6.29451L7.2775 9.63451C7.2775 9.63451 8.1305 7.71101 9.6405 7.26251L6.328 4.86151C5.785 5.26351 4.849 6.29451 4.849 6.29451Z" fill="url(#paint2_radial_6687_1589)"/>
<path id="Vector_6" d="M3.48401 4.41599L6.01951 7.90349C6.01951 7.90349 6.88551 6.47599 7.91001 6.00699L4.43801 3.49199C4.09751 3.77099 3.48401 4.41599 3.48401 4.41599Z" fill="url(#paint3_radial_6687_1589)"/>
<path id="Vector_7" d="M2.12897 2.55201L4.74097 6.14501C4.74097 6.14501 5.41297 4.96801 6.14847 4.73101L2.56347 2.13301C2.41397 2.26751 2.12897 2.55201 2.12897 2.55201Z" fill="url(#paint4_radial_6687_1589)"/>
<path id="Vector_8" d="M3.442 4.359C3.442 4.359 3.748 3.674 4.3595 3.434L1 1L3.442 4.359Z" fill="url(#paint5_radial_6687_1589)"/>
<path id="Vector_9" d="M13.705 7.92199C16.8405 12.3515 23.081 15.5745 26.7745 12.8145C25.7475 6.51899 18.968 4.64049 13.705 7.92199Z" fill="#FA5393"/>
<path id="Vector_10" d="M16.0055 9.11149C18.577 14.1685 24.835 18.7565 29.4915 16.903C29.6375 10.503 22.5075 7.10749 16.0055 9.11149Z" fill="#FF8CBC"/>
<path id="Vector_11" d="M19.8884 11.478C21.0549 17.0275 25.6454 24.112 30.6249 23.528C31.9049 14.9475 26.6884 11.226 19.8884 11.478Z" fill="#FA5393"/>
<path id="Vector_12" d="M23.7929 14.997C22.9124 20.598 25.3534 25.0695 29.0249 28.3295C33.7929 24.8135 29.0889 15.3845 23.7929 14.997Z" fill="#FF8CBC"/>
<path id="Vector_13" d="M15.945 9.04451C13.2805 13.201 15.639 22.856 15.639 22.856C19.4455 23.7025 16.1785 31 18.6865 31C25.804 31 29.025 28.3295 29.025 28.3295C30.1235 18.795 21.419 9.39651 15.945 9.04451Z" fill="url(#paint6_linear_6687_1589)"/>
<path id="Vector_14" d="M18.8415 14.0885C13.934 13.7215 15.639 22.856 15.639 22.856C19.4455 23.7025 16.1785 31 18.6865 31C17.7465 25.7835 22.7585 20.9495 18.8415 14.0885Z" fill="url(#paint7_linear_6687_1589)"/>
<path id="Vector_15" d="M18.2199 9.91251C17.9689 8.77801 16.7294 4.26501 14.1244 3.00301C13.8094 2.85001 13.5424 8.73151 13.5424 8.73151C10.2994 12.3265 2.13093 20.1145 1.19043 21.251C0.247435 22.3865 3.11093 25.7525 3.11093 25.7525C3.90693 25.8465 4.89893 26.52 5.30493 26.807C6.05493 27.3395 7.87743 25.2795 9.91993 24.899C17.6064 23.4585 19.1299 20.9185 19.3859 18.525C19.9829 12.9465 18.2199 9.91251 18.2199 9.91251Z" fill="url(#paint8_linear_6687_1589)"/>
<path id="Vector_16" d="M3.16154 22.692C2.89654 22.8795 2.24954 23.019 2.05354 22.7655C1.85704 22.512 2.18854 21.96 2.45254 21.7735C2.71554 21.588 3.08954 21.642 3.28454 21.895C3.48154 22.148 3.42604 22.5065 3.16154 22.692Z" fill="#302C3B"/>
<path id="Vector_17" d="M8.125 21.305C8.065 22.4815 7.4715 23.636 6.56 24.475C6.0965 24.891 5.5535 25.225 4.9675 25.44C4.3825 25.659 3.7595 25.7585 3.146 25.7495C4.3145 25.395 5.3765 24.9 6.2125 24.1265C6.6335 23.747 6.9985 23.309 7.3155 22.8365C7.626 22.358 7.908 21.853 8.125 21.305Z" fill="#302C3B"/>
<path id="Vector_18" d="M8.36798 17.241C8.36798 17.241 8.83498 16.8975 9.25648 16.9815C9.25648 16.9815 8.67898 17.553 9.11298 18.4405C9.11298 18.4405 9.58198 17.3655 10.389 17.2995C10.389 17.2995 9.83698 18.0815 10.542 18.7945C10.542 18.7945 10.69 17.7065 11.7365 17.3805C11.7365 17.3805 11.5895 17.951 12.1005 18.632C12.1005 18.632 11.943 17.649 12.6575 17.171C13.375 16.6925 14.1705 16.4305 14.5765 15.2065C14.5765 15.2065 12.835 16.9855 10.4315 16.4935C9.80798 16.3665 8.87098 16.198 8.36798 17.241Z" fill="#302C3B"/>
<path id="Vector_19" d="M14.1331 3.87001C14.2151 3.33901 16.7371 6.70551 15.9571 10.1245C15.9081 10.345 14.0536 9.73401 13.8611 8.33351C13.8611 8.33351 13.8346 5.79751 14.1331 3.87001Z" fill="#99A8AE"/>
<path id="Vector_20" d="M2.53649 20.783C2.26749 20.9475 2.31549 21.049 2.55149 20.961C2.78849 20.8735 3.94249 20.581 4.03949 21.798C4.03949 21.798 4.10449 22.3425 4.25099 21.802C4.39549 21.259 4.04999 19.858 2.53649 20.783Z" fill="#99A8AE"/>
<path id="Vector_21" d="M13.6095 7.45149C13.6095 7.45149 12.8835 12.0245 18.5855 15.685C18.5855 15.685 7.87548 13.0685 13.6095 7.45149Z" fill="#FA5393"/>
<path id="Vector_22" d="M28.4095 19.2675C20.25 16.395 20.608 7.784 17.7485 8.004C16.298 15.1885 23.8865 19.012 28.4095 19.2675Z" fill="#FA5393"/>
</g>
<defs>
<radialGradient id="paint0_radial_6687_1589" cx="0" cy="0" r="1" gradientUnits="userSpaceOnUse" gradientTransform="translate(10.3681 10.3519) rotate(-44.9554) scale(2.27151 13.629)">
<stop stop-color="#C28FEF"/>
<stop offset="0.6667" stop-color="#B357E6"/>
</radialGradient>
<radialGradient id="paint1_radial_6687_1589" cx="0" cy="0" r="1" gradientUnits="userSpaceOnUse" gradientTransform="translate(8.5541 8.54135) rotate(-44.9554) scale(1.97569 11.8541)">
<stop stop-color="#75D6FF"/>
<stop offset="0.1023" stop-color="#67CDF8"/>
<stop offset="0.6667" stop-color="#1A9ED6"/>
</radialGradient>
<radialGradient id="paint2_radial_6687_1589" cx="0" cy="0" r="1" gradientUnits="userSpaceOnUse" gradientTransform="translate(7.01107 7.00213) rotate(-44.9554) scale(1.87208 11.2324)">
<stop stop-color="#78FFC7"/>
<stop offset="0.0538" stop-color="#72F9C3"/>
<stop offset="0.7212" stop-color="#25B399"/>
</radialGradient>
<radialGradient id="paint3_radial_6687_1589" cx="0" cy="0" r="1" gradientUnits="userSpaceOnUse" gradientTransform="translate(5.4581 5.45024) rotate(-44.9554) scale(1.7805 10.683)">
<stop stop-color="#DCFF91"/>
<stop offset="0.1798" stop-color="#C5EF74"/>
<stop offset="0.6667" stop-color="#88C427"/>
</radialGradient>
<radialGradient id="paint4_radial_6687_1589" cx="0" cy="0" r="1" gradientUnits="userSpaceOnUse" gradientTransform="translate(3.89415 3.8899) rotate(-44.9554) scale(1.70431 10.2258)">
<stop stop-color="#FFED80"/>
<stop offset="0.2612" stop-color="#FFD24C"/>
<stop offset="0.6667" stop-color="#FFAA00"/>
</radialGradient>
<radialGradient id="paint5_radial_6687_1589" cx="0" cy="0" r="1" gradientUnits="userSpaceOnUse" gradientTransform="translate(2.45162 2.44949) rotate(-44.9554) scale(1.52175 9.1305)">
<stop stop-color="#FF8E80"/>
<stop offset="0.2727" stop-color="#F44C45"/>
<stop offset="0.6061" stop-color="#E80000"/>
</radialGradient>
<linearGradient id="paint6_linear_6687_1589" x1="21.8974" y1="31" x2="21.8974" y2="18.9466" gradientUnits="userSpaceOnUse">
<stop offset="0.2545" stop-color="#CFD8DD"/>
<stop offset="0.6086" stop-color="#D7DFE3"/>
<stop offset="1" stop-color="#E6EBEF"/>
</linearGradient>
<linearGradient id="paint7_linear_6687_1589" x1="15.8669" y1="21.2578" x2="20.7349" y2="23.5079" gradientUnits="userSpaceOnUse">
<stop stop-color="#302C3B" stop-opacity="0.2"/>
<stop offset="1" stop-color="#302C3B" stop-opacity="0"/>
</linearGradient>
<linearGradient id="paint8_linear_6687_1589" x1="13.3046" y1="27.3721" x2="10.5643" y2="18.8146" gradientUnits="userSpaceOnUse">
<stop offset="0.2545" stop-color="#CFD8DD"/>
<stop offset="0.6086" stop-color="#D7DFE3"/>
<stop offset="1" stop-color="#E6EBEF"/>
</linearGradient>
</defs>
</svg>
