<svg width="28" height="28" viewBox="0 0 28 28" fill="none" xmlns="http://www.w3.org/2000/svg">
<g id="Icon_analytics">
<path id="Union" fill-rule="evenodd" clip-rule="evenodd" d="M16.0301 2.97651C16.0301 2.4128 16.4882 1.95035 17.0491 2.00702C21.7673 2.48372 25.5186 6.235 25.9953 10.9532C26.052 11.5141 25.5895 11.9722 25.0258 11.9722H17.8296C16.8358 11.9722 16.0301 11.1666 16.0301 10.1727V2.97651ZM13.1184 4.00703C13.6133 3.96302 14.017 4.37011 14.017 4.86704V11.2844C14.017 12.7752 15.2255 13.9837 16.7162 13.9837H23.1336C23.6305 13.9837 24.0376 14.3873 23.9936 14.8823C23.99 14.9225 23.9862 14.9626 23.9822 15.0026C23.4716 20.0559 19.2049 24.0001 14.017 24.0001C8.48504 24.0001 4.00055 19.5156 4.00055 13.9837C4.00055 8.79574 7.94467 4.52903 12.998 4.01846C13.038 4.01442 13.0782 4.0106 13.1184 4.00703Z" fill="white"/>
</g>
</svg>
