<svg width="28" height="28" viewBox="0 0 28 28" fill="none" xmlns="http://www.w3.org/2000/svg">
<g id="Icon_compencation">
<path id="Shape" fill-rule="evenodd" clip-rule="evenodd" d="M15.0834 5.87501V3.83518C15.0834 3.14345 15.8926 2.76811 16.4207 3.21493L21.392 7.42143C21.7756 7.74598 21.7756 8.33738 21.392 8.66193L16.4207 12.8684C15.8926 13.3152 15.0834 12.9399 15.0834 12.2482V10.2083C11.066 10.2083 8.91081 10.2083 5.16493 13.2297C4.8027 13.5219 4.25984 13.2664 4.30104 12.8029C4.91691 5.87501 10.9743 5.87501 15.0834 5.87501ZM12.9167 22.125V24.1648C12.9167 24.8566 12.1074 25.2319 11.5794 24.7851L6.60806 20.5786C6.22449 20.254 6.22449 19.6626 6.60806 19.3381L11.5794 15.1316C12.1074 14.6848 12.9167 15.0601 12.9167 15.7518V17.7917C16.9341 17.7917 19.0893 17.7917 22.8351 14.7703C23.1974 14.4781 23.7402 14.7336 23.699 15.1971C23.0832 22.125 17.0258 22.125 12.9167 22.125Z" fill="white"/>
</g>
</svg>
