<svg width="32" height="32" viewBox="0 0 32 32" fill="none" xmlns="http://www.w3.org/2000/svg">
<g id="Icon_meta">
<path id="Vector" d="M8.78154 4.8925C8.79454 5.0605 5.79554 5.3095 5.78154 5.14C5.76854 4.9725 8.76854 4.7235 8.78154 4.8925Z" fill="#FFE600"/>
<path id="Vector_2" d="M7.92446 3.6415C8.07646 3.7145 6.78946 6.464 6.63896 6.391C6.48746 6.3195 7.77396 3.5695 7.92446 3.6415Z" fill="#FFE600"/>
<path id="Vector_3" d="M31 30.1L30.1095 31L11.703 12.4005L12.594 11.501L31 30.1Z" fill="url(#paint0_linear_6738_1282)"/>
<path id="Vector_4" d="M12.8875 12.7115C12.447 13.1565 3.82898 3.55801 3.82898 3.55801C3.82898 3.55801 13.3255 12.269 12.8875 12.7115Z" fill="#FFCC00"/>
<path id="Vector_5" d="M12.8865 12.712C12.4465 12.2675 21.36 4.14899 21.36 4.14899C21.36 4.14899 13.3255 13.1555 12.8865 12.712Z" fill="#F59E01"/>
<path id="Vector_6" d="M12.8865 12.712C13.325 13.1555 4.75146 20.931 4.75146 20.931C4.75146 20.931 12.447 12.2675 12.8865 12.712Z" fill="#F9C802"/>
<path id="Vector_7" d="M12.8865 12.712C12.264 12.7125 12.889 1.5495 12.889 1.5495C12.889 1.5495 13.507 12.7115 12.8865 12.712Z" fill="#F9C802"/>
<path id="Vector_8" d="M12.8865 12.712C13.507 12.711 12.8845 23.8735 12.8845 23.8735C12.8845 23.8735 12.2645 12.7125 12.8865 12.712Z" fill="#F59E01"/>
<path id="Vector_9" d="M12.8865 12.712C12.8865 12.0835 23.933 12.7095 23.933 12.7095C23.933 12.7095 12.886 13.3385 12.8865 12.712Z" fill="#FFCC00"/>
<path id="Vector_10" d="M12.8865 12.712C12.886 13.3385 1.83997 12.714 1.83997 12.714C1.83997 12.714 12.887 12.0835 12.8865 12.712Z" fill="#FFCC00"/>
<path id="Vector_11" d="M6.26 7.3855C6.6555 6.884 12.887 12.7115 12.887 12.7115C12.887 12.7115 5.8645 7.8885 6.26 7.3855Z" fill="#FF9901"/>
<path id="Vector_12" d="M19.512 18.036C19.117 18.5385 12.8865 12.711 12.8865 12.711C12.8865 12.711 19.9085 17.5345 19.512 18.036Z" fill="#FF9901"/>
<path id="Vector_13" d="M18.16 6.01299C18.6565 6.41299 12.886 12.7115 12.886 12.7115C12.886 12.7115 17.662 5.61349 18.16 6.01299Z" fill="#FFCC00"/>
<path id="Vector_14" d="M7.61354 19.4095C7.11604 19.01 12.887 12.7115 12.887 12.7115C12.8865 12.712 8.11054 19.809 7.61354 19.4095Z" fill="#FF6A00"/>
<path id="Vector_15" d="M11.93 4.20899C12.561 4.13599 12.8865 12.7115 12.8865 12.7115C12.8865 12.7115 11.2985 4.28199 11.93 4.20899Z" fill="#FF9901"/>
<path id="Vector_16" d="M13.843 21.2135C13.213 21.2865 12.8865 12.711 12.8865 12.711C12.8865 12.711 14.4745 21.141 13.843 21.2135Z" fill="#FF6A00"/>
<path id="Vector_17" d="M21.3015 11.7405C21.3725 12.378 12.886 12.711 12.8865 12.711C12.8865 12.711 21.2285 11.103 21.3015 11.7405Z" fill="#FF9901"/>
<path id="Vector_18" d="M4.47202 13.6825C4.39952 13.0445 12.887 12.712 12.8865 12.7115C12.886 12.7115 4.54402 14.3205 4.47202 13.6825Z" fill="#FFE600"/>
<path id="Vector_19" d="M2.75904 8.26349C3.08954 7.49549 12.887 12.712 12.887 12.712C12.887 12.712 2.42804 9.03149 2.75904 8.26349Z" fill="#F9B700"/>
<path id="Vector_20" d="M23.0155 17.1595C22.6845 17.927 12.8865 12.711 12.8865 12.711C12.8865 12.711 23.346 16.392 23.0155 17.1595Z" fill="#FF6A00"/>
<path id="Vector_21" d="M17.2935 2.47501C18.053 2.80851 12.886 12.712 12.8865 12.7115C12.886 12.7115 16.533 2.14101 17.2935 2.47501Z" fill="#FF9901"/>
<path id="Vector_22" d="M8.48004 22.9485C7.72054 22.6155 12.8865 12.7115 12.8865 12.7115C12.8865 12.712 9.23954 23.2815 8.48004 22.9485Z" fill="#FF9901"/>
<path id="Vector_23" d="M8.84103 2.32749C9.61203 2.01999 12.8865 12.7115 12.8865 12.7115C12.8865 12.7115 8.07003 2.63499 8.84103 2.32749Z" fill="#FF6A00"/>
<path id="Vector_24" d="M16.9325 23.096C16.1615 23.4025 12.8865 12.7105 12.8865 12.7105C12.8865 12.7105 17.703 22.788 16.9325 23.096Z" fill="#FFE600"/>
<path id="Vector_25" d="M23.165 8.61849C23.4675 9.39749 12.8855 12.7115 12.886 12.7115C12.8865 12.711 22.8605 7.83949 23.165 8.61849Z" fill="#FFE600"/>
<path id="Vector_26" d="M2.60756 16.804C2.30506 16.026 12.8871 12.7115 12.8861 12.711C12.8861 12.7115 2.91156 17.585 2.60756 16.804Z" fill="#FF6A00"/>
<path id="Vector_27" d="M3.46596 11.291C3.57096 10.577 12.8875 12.7115 12.8875 12.7115C12.8875 12.7115 3.36046 12.0045 3.46596 11.291Z" fill="#FF6A00"/>
<path id="Vector_28" d="M22.3085 14.132C22.202 14.8455 12.8865 12.711 12.8865 12.711C12.8865 12.711 22.413 13.4175 22.3085 14.132Z" fill="#FF9901"/>
<path id="Vector_29" d="M14.296 3.19051C15.003 3.29701 12.8865 12.712 12.886 12.7115C12.886 12.7115 13.59 3.08401 14.296 3.19051Z" fill="#FF6A00"/>
<path id="Vector_30" d="M11.477 22.2325C10.7705 22.1265 12.8875 12.7115 12.8875 12.7115C12.887 12.712 12.184 22.34 11.477 22.2325Z" fill="#FFCC00"/>
<path id="Vector_31" d="M7.22146 4.974C7.79596 4.545 12.886 12.7115 12.886 12.7115C12.886 12.7115 6.64696 5.404 7.22146 4.974Z" fill="#FFE600"/>
<path id="Vector_32" d="M18.5525 20.4485C17.9775 20.877 12.8865 12.7105 12.8865 12.7105C12.8865 12.7105 19.126 20.019 18.5525 20.4485Z" fill="#FF6A00"/>
<path id="Vector_33" d="M20.546 6.98351C20.9705 7.56401 12.886 12.712 12.8865 12.7115C12.8865 12.711 20.12 6.40351 20.546 6.98351Z" fill="#FF6A00"/>
<path id="Vector_34" d="M5.22749 18.439C4.80249 17.859 12.8875 12.7115 12.886 12.7115C12.886 12.7115 5.65299 19.02 5.22749 18.439Z" fill="#FF9901"/>
<path id="Vector_35" d="M20.167 20.0545C20.167 20.0545 12.4175 13.063 12.235 12.878C11.564 12.2005 12.3945 11.361 13.0655 12.039C13.2485 12.224 20.167 20.0545 20.167 20.0545Z" fill="#FFE600"/>
<path id="Vector_36" d="M14.098 13.92L13.7745 16.0935L12.403 14.372L10.3765 15.1595L11.156 13.1115L9.45203 11.7255L11.603 11.399L11.926 9.22549L13.2975 10.947L15.3245 10.16L14.545 12.2075L16.249 13.5935L14.098 13.92Z" fill="url(#paint1_radial_6738_1282)"/>
<path id="Vector_37" d="M13.7315 13.5495L13.503 15.0845L12.534 13.8685L11.1035 14.425L11.6535 12.979L10.45 12L11.969 11.769L12.1975 10.234L13.1665 11.45L14.598 10.894L14.047 12.34L15.2505 13.319L13.7315 13.5495Z" fill="url(#paint2_radial_6738_1282)"/>
<path id="Vector_38" d="M21.79 5.8085C21.609 5.857 20.7315 2.555 20.914 2.506C21.094 2.4585 21.9725 5.759 21.79 5.8085Z" fill="#F59E01"/>
<path id="Vector_39" d="M22.9865 4.59998C22.9365 4.78548 19.669 3.89848 19.718 3.71448C19.7655 3.53098 23.034 4.41798 22.9865 4.59998Z" fill="#F59E01"/>
<path id="Vector_40" d="M5.20504 22.599C5.02104 22.648 4.13004 19.2955 4.31554 19.2455C4.49904 19.197 5.39004 22.5495 5.20504 22.599Z" fill="#F9C802"/>
<path id="Vector_41" d="M6.41952 21.3725C6.36902 21.559 3.05102 20.659 3.10102 20.473C3.14952 20.2865 6.46852 21.187 6.41952 21.3725Z" fill="#F9C802"/>
<path id="Vector_42" d="M13.917 2.18551C13.8525 2.29851 11.835 1.12151 11.9005 1.00751C11.965 0.896006 13.9835 2.07201 13.917 2.18551Z" fill="#F9C802"/>
<path id="Vector_43" d="M13.9175 1.0075C13.9835 1.122 11.965 2.299 11.9005 2.186C11.8355 2.0725 13.854 0.896003 13.9175 1.0075Z" fill="#F9C802"/>
<path id="Vector_44" d="M14.132 24.6025C14.052 24.7415 11.5555 23.2855 11.6365 23.145C11.717 23.0065 14.213 24.4615 14.132 24.6025Z" fill="#F59E01"/>
<path id="Vector_45" d="M14.1326 23.145C14.2136 23.2865 11.7166 24.7425 11.6361 24.602C11.5556 24.4625 14.0531 23.0065 14.1326 23.145Z" fill="#F59E01"/>
<path id="Vector_46" d="M23.0845 14.0385C22.939 13.9525 24.4605 11.2885 24.6075 11.3745C24.754 11.4595 23.2315 14.1245 23.0845 14.0385Z" fill="#FFCC00"/>
<path id="Vector_47" d="M24.6075 14.038C24.46 14.1235 22.937 11.459 23.0845 11.374C23.2315 11.289 24.753 13.953 24.6075 14.038Z" fill="#FFCC00"/>
<path id="Vector_48" d="M1.01046 14.0535C0.85746 13.9635 2.45096 11.1745 2.60496 11.2645C2.75696 11.354 1.16496 14.144 1.01046 14.0535Z" fill="#FFCC00"/>
<path id="Vector_49" d="M2.60497 14.0535C2.45047 14.1435 0.856466 11.354 1.01047 11.2645C1.16347 11.1745 2.75697 13.965 2.60497 14.0535Z" fill="#FFCC00"/>
</g>
<defs>
<linearGradient id="paint0_linear_6738_1282" x1="20.8561" y1="21.7456" x2="21.8478" y2="20.7539" gradientUnits="userSpaceOnUse">
<stop stop-color="#99A8AE"/>
<stop offset="0.281" stop-color="#B1BFC7"/>
<stop offset="0.6102" stop-color="#C7D5DE"/>
<stop offset="0.8182" stop-color="#CFDDE6"/>
</linearGradient>
<radialGradient id="paint1_radial_6738_1282" cx="0" cy="0" r="1" gradientUnits="userSpaceOnUse" gradientTransform="translate(12.8503 12.6583) rotate(-45.2982) scale(3.30225 3.30207)">
<stop stop-color="#FFFF57"/>
<stop offset="0.2064" stop-color="#FFF94B"/>
<stop offset="0.5797" stop-color="#FFEA2B"/>
<stop offset="1" stop-color="#FFD500"/>
</radialGradient>
<radialGradient id="paint2_radial_6738_1282" cx="0" cy="0" r="1" gradientUnits="userSpaceOnUse" gradientTransform="translate(12.8504 12.6585) rotate(-45.2982) scale(2.33245 2.33232)">
<stop stop-color="white"/>
<stop offset="0.1226" stop-color="#FFFFF9" stop-opacity="0.8774"/>
<stop offset="0.2842" stop-color="#FFFFE9" stop-opacity="0.7158"/>
<stop offset="0.4676" stop-color="#FFFFCD" stop-opacity="0.5324"/>
<stop offset="0.6671" stop-color="#FFFFA7" stop-opacity="0.3329"/>
<stop offset="0.8773" stop-color="#FFFF77" stop-opacity="0.1227"/>
<stop offset="1" stop-color="#FFFF57" stop-opacity="0"/>
</radialGradient>
</defs>
</svg>
