<svg width="28" height="28" viewBox="0 0 28 28" fill="none" xmlns="http://www.w3.org/2000/svg">
<g id="Icon_treasury">
<g id="Group">
<g id="Group_2">
<g id="Group_3">
<path id="Vector" d="M12.8658 20.2966L11.4428 15.7588C11.1772 14.9118 10.3923 14.3353 9.50451 14.3353H5.37463C4.48687 14.3353 3.70199 14.9118 3.43633 15.7588L2.01338 20.2966C1.92959 20.7156 2.25005 21.1066 2.67736 21.1066H12.2018C12.6291 21.1066 12.9496 20.7156 12.8658 20.2966Z" fill="white"/>
</g>
</g>
<g id="Group_4">
<g id="Group_5">
<path id="Vector_2" d="M25.9866 20.2966L24.5636 15.7588C24.298 14.9118 23.5131 14.3353 22.6253 14.3353H18.4954C17.6077 14.3353 16.8228 14.9118 16.5571 15.7588L15.1342 20.2966C15.0504 20.7156 15.3708 21.1066 15.7982 21.1066H25.3226C25.7499 21.1066 26.0704 20.7156 25.9866 20.2966Z" fill="white"/>
</g>
</g>
<g id="Group_6">
<g id="Group_7">
<path id="Vector_3" d="M19.4043 11.2821L17.9813 6.7443C17.7157 5.89726 16.9308 5.3208 16.043 5.3208H11.9583C11.0706 5.3208 10.2857 5.89726 10.02 6.7443L8.59705 11.2821C8.51327 11.7011 8.83373 12.0921 9.26104 12.0921H18.7403C19.1677 12.0921 19.4881 11.7011 19.4043 11.2821Z" fill="white"/>
</g>
</g>
</g>
</g>
</svg>
