<svg width="32" height="32" viewBox="0 0 32 32" fill="none" xmlns="http://www.w3.org/2000/svg">
<g id="Icon_invest">
<path id="Vector" d="M28.2184 11.233C25.3914 8.6505 8.63444 15.394 1.93944 19.438C1.75794 20.289 1.57494 21.1285 1.37244 21.949C4.29694 24.62 7.48594 27.8465 10.4089 30.518C20.6619 24.743 28.5584 14.6085 28.5584 14.6085C28.4184 13.465 28.3884 12.397 28.2184 11.233Z" fill="#529320"/>
<path id="Vector_2" d="M10.4516 29.752C6.89507 26.4005 1.49707 21.4375 1.49707 21.4375C1.49707 21.4375 7.77257 27.469 10.4326 30.094C21.5741 23.5665 28.4551 13.9415 28.4551 13.9415C28.4551 13.9415 19.9141 24.755 10.4516 29.752Z" fill="#447A1B"/>
<path id="Vector_3" d="M10.4935 28.99C6.74853 25.473 1.66803 20.8515 1.66803 20.8515C1.66803 20.8515 6.67353 25.6925 10.475 29.325C21.718 22.833 28.361 13.1625 28.361 13.1625C28.361 13.1625 20.942 23.256 10.4935 28.99Z" fill="#447A1B"/>
<path id="Vector_4" d="M10.546 28.044C6.78453 24.6255 1.85553 20.1355 1.85553 20.1355C1.85553 20.1355 6.80703 24.8685 10.526 28.4095C21.66 22.178 28.2785 12.2275 28.2785 12.2275C28.2785 12.2275 21.134 22.327 10.546 28.044Z" fill="#447A1B"/>
<path id="Vector_5" d="M10.5851 27.332C7.70308 24.702 4.82208 22.071 1.93958 19.438C9.09908 15.3925 15.1416 9.87501 19.5721 3.33901C22.4546 5.96901 25.3366 8.59951 28.2186 11.233C23.7876 17.7705 17.7451 23.2865 10.5851 27.332Z" fill="#92C932"/>
<path id="Vector_6" d="M9.90142 25.525C7.99492 23.785 6.08992 22.0455 4.18542 20.3055C4.30192 20.237 4.41892 20.1675 4.53542 20.0985C4.92092 19.8715 4.97292 19.444 4.65742 19.157C4.56342 19.069 4.46692 18.982 4.37292 18.895C10.1329 15.352 15.0949 10.8215 18.9764 5.56101C19.0709 5.64801 19.1669 5.73501 19.2614 5.82151C19.5769 6.10901 20.0434 6.06101 20.2934 5.70951C20.3684 5.60301 20.4454 5.49501 20.5199 5.38851C22.4254 7.12851 24.3314 8.86901 26.2369 10.608C26.1619 10.7145 26.0854 10.821 26.0099 10.9285C25.7599 11.28 25.8059 11.7965 26.1219 12.085C26.2169 12.173 26.3124 12.2605 26.4074 12.3455C22.5274 17.606 17.5639 22.1375 11.8034 25.6825C11.7079 25.5945 11.6129 25.507 11.5184 25.419C11.2039 25.133 10.6364 25.09 10.2529 25.3185C10.1349 25.388 10.0184 25.4565 9.90142 25.525ZM5.41992 20.3785C6.96792 21.7915 8.51642 23.2065 10.0644 24.6195C10.6564 24.4205 11.3514 24.467 11.8779 24.755C17.1494 21.411 21.7304 17.2265 25.3954 12.411C25.0799 11.9315 25.0274 11.2965 25.2459 10.7565C23.6969 9.34251 22.1484 7.92851 20.6004 6.51451C20.1734 6.86601 19.5944 6.92251 19.1074 6.66951C15.4424 11.484 10.8614 15.6685 5.58792 19.0135C5.86492 19.4585 5.80342 19.988 5.41992 20.3785Z" fill="#529320"/>
<path id="Vector_7" d="M16.3584 13.3715C17.1269 13.3715 17.8064 13.636 18.3789 14.1595C19.2264 14.9335 19.4854 15.83 19.1269 16.753C18.6374 18.015 17.1579 18.9675 15.6854 18.9675C14.8399 18.9675 14.0464 18.651 13.3904 18.0525C12.6454 17.3725 12.4384 16.5875 12.7744 15.7215C13.2849 14.404 14.8599 13.3715 16.3584 13.3715ZM16.3584 12.6215C13.2724 12.622 10.2339 16.184 12.8849 18.606C13.7429 19.389 14.7279 19.7175 15.6859 19.7175C18.8344 19.7175 21.7024 16.1785 18.8849 13.606C18.1269 12.913 17.2404 12.6215 16.3584 12.6215Z" fill="#529320"/>
<path id="Vector_8" d="M10.8789 23.3185C10.0194 22.534 11.5324 21.273 12.3914 22.058C13.3179 22.904 11.8054 24.164 10.8789 23.3185Z" fill="#7AB51D"/>
<path id="Vector_9" d="M7.33298 20.053C6.47298 19.268 7.98598 18.007 8.84448 18.7925C9.77048 19.638 8.25898 20.8985 7.33298 20.053Z" fill="#7AB51D"/>
<path id="Vector_10" d="M22.6755 12.9375C21.594 12.5065 22.5635 10.7935 23.6445 11.224C24.8105 11.6885 23.8405 13.402 22.6755 12.9375Z" fill="#7AB51D"/>
<path id="Vector_11" d="M19.1405 9.57299C18.039 9.19699 18.92 7.43749 20.0215 7.81249C21.209 8.21549 20.328 9.97599 19.1405 9.57299Z" fill="#7AB51D"/>
<path id="Vector_12" d="M10.6481 13.3265C10.6481 13.3265 14.4431 17.7615 19.2801 21.235C20.5766 20.229 21.5331 19.185 21.5331 19.185C18.2841 15.244 12.8546 11.313 12.8546 11.313C11.8256 12.2085 10.6481 13.3265 10.6481 13.3265Z" fill="#ECF1F5"/>
<path id="Vector_13" d="M19.28 21.2355L10.648 13.3265L10.116 13.778L18.725 21.7035L19.28 21.2355Z" fill="#FFE12C"/>
<path id="Vector_14" d="M21.5325 19.1855L22.0465 18.6715L13.389 10.788L12.854 11.3135L21.5325 19.1855Z" fill="#FFE12C"/>
<path id="Vector_15" fill-rule="evenodd" clip-rule="evenodd" d="M31 30.6775C27.7575 31.4635 26.2855 29.884 26.2855 29.884C23.631 31.1435 21.581 28.6445 21.581 28.6445C16.0695 27.478 19.5875 21.8315 17.0505 18.961C26.4595 14.9955 25.4925 26.336 31 30.6775Z" fill="url(#paint0_linear_6687_1527)"/>
<path id="Vector_16" fill-rule="evenodd" clip-rule="evenodd" d="M22.7185 25.2695C25.271 29.9225 28.526 31.1985 31 30.6775C26.6415 32.1565 24.155 28.229 22.7185 25.2695Z" fill="#B3C2C6"/>
<path id="Vector_17" fill-rule="evenodd" clip-rule="evenodd" d="M19.9725 23.7045C20.896 29.128 23.619 30.6395 26.147 29.947C22.8485 31.589 19.969 27.779 19.9725 23.7045Z" fill="#B3C2C6"/>
<path id="Vector_18" fill-rule="evenodd" clip-rule="evenodd" d="M18.1225 22.3485C18.1415 26.0655 18.9475 27.79 21.5445 28.6375C17.9715 28.1845 17.975 25.417 18.1225 22.3485Z" fill="#B3C2C6"/>
<path id="Vector_19" fill-rule="evenodd" clip-rule="evenodd" d="M13.04 14.95C10.169 12.413 4.52102 15.9275 3.35552 10.4185C3.35552 10.4185 0.857025 8.3685 2.11552 5.715C2.11552 5.715 0.536025 4.245 1.32202 1C5.66502 6.5095 17.0045 5.5425 13.04 14.95Z" fill="url(#paint1_linear_6687_1527)"/>
<path id="Vector_20" fill-rule="evenodd" clip-rule="evenodd" d="M6.73101 9.2815C2.07851 6.73 0.802007 3.4755 1.32201 1C-0.156993 5.3595 3.77251 7.8445 6.73101 9.2815Z" fill="#B3C2C6"/>
<path id="Vector_21" fill-rule="evenodd" clip-rule="evenodd" d="M8.29403 12.0275C2.87303 11.1035 1.36103 8.38149 2.05203 5.85249C0.411028 9.15199 4.22053 12.031 8.29403 12.0275Z" fill="#B3C2C6"/>
<path id="Vector_22" fill-rule="evenodd" clip-rule="evenodd" d="M9.65247 13.879C5.93496 13.859 4.20946 13.052 3.36346 10.4555C3.81546 14.028 6.58346 14.0255 9.65247 13.879Z" fill="#B3C2C6"/>
</g>
<defs>
<linearGradient id="paint0_linear_6687_1527" x1="17.0507" y1="24.5149" x2="31" y2="24.5149" gradientUnits="userSpaceOnUse">
<stop stop-color="#ECF1F5"/>
<stop offset="0.413" stop-color="#E9EEF3"/>
<stop offset="0.7203" stop-color="#E0E6EB"/>
<stop offset="0.9932" stop-color="#D0D8DD"/>
<stop offset="1" stop-color="#CFD8DD"/>
</linearGradient>
<linearGradient id="paint1_linear_6687_1527" x1="1.10252" y1="7.9751" x2="13.8672" y2="7.9751" gradientUnits="userSpaceOnUse">
<stop stop-color="#CFD8DD"/>
<stop offset="0.0068" stop-color="#D0D8DD"/>
<stop offset="0.2797" stop-color="#E0E6EB"/>
<stop offset="0.587" stop-color="#E9EEF3"/>
<stop offset="1" stop-color="#ECF1F5"/>
</linearGradient>
</defs>
</svg>
