<svg width="28" height="28" viewBox="0 0 28 28" fill="none" xmlns="http://www.w3.org/2000/svg">
<g id="Icon_governance">
<g id="Group 8">
<path id="Vector" d="M18.5607 6.27638L17.7195 7.72932C17.4901 8.18814 16.9548 8.41755 16.4959 8.41755C16.2665 8.41755 16.0371 8.34108 15.8077 8.26461L13.0548 12.9293C13.3607 13.0823 13.5901 13.3881 13.6665 13.7705C13.743 14.1528 13.743 14.5352 13.5136 14.8411L12.7489 16.1411C12.5195 16.5999 11.9842 16.9058 11.5254 16.9058C11.2959 16.9058 10.9901 16.8293 10.7607 16.6764L6.01947 13.9234C5.33124 13.5411 5.10183 12.6234 5.48418 11.9352L6.24889 10.6352C6.63124 9.94696 7.54889 9.71755 8.16065 10.0999L10.8371 5.4352C10.1489 5.05285 9.91947 4.1352 10.3783 3.44696L11.2195 1.99402C11.6018 1.30579 12.5195 1.07638 13.2077 1.45873L18.0254 4.21167C18.3312 4.44108 18.6371 4.74696 18.7136 5.12932C18.7901 5.51167 18.7136 5.97049 18.5607 6.27638Z" fill="white"/>
<path id="Vector_2" d="M25.2136 16.8294C24.9077 17.4411 24.2195 17.8235 23.5313 17.8235C23.2254 17.8235 22.843 17.747 22.5371 17.5941L15.1195 13.2353C15.043 13.0823 14.9665 12.9294 14.8901 12.7764L16.496 10.0235C16.6489 10.0235 16.8018 10.0235 17.0313 9.94702L24.5254 14.3058C25.443 14.7647 25.7489 15.9117 25.2136 16.8294Z" fill="white"/>
<rect id="Rectangle 287" x="5.34888" y="20" width="14" height="4" rx="1.5" fill="white"/>
</g>
</g>
</svg>
