<svg width="32" height="32" viewBox="0 0 32 32" fill="none" xmlns="http://www.w3.org/2000/svg">
<g id="Icon_twitter" opacity="0.7">
<path id="Vector" d="M29.8667 7.39942C28.8459 7.85276 27.7493 8.15782 26.5984 8.29542C27.7739 7.59142 28.6752 6.47676 29.0997 5.14769C28.0011 5.79942 26.7829 6.27302 25.4859 6.52902C24.448 5.42289 22.9696 4.73169 21.3333 4.73169C18.1909 4.73169 15.6437 7.27996 15.6437 10.4213C15.6437 10.8672 15.6949 11.3024 15.7909 11.7173C11.0624 11.4805 6.8704 9.21489 4.06293 5.77169C3.5744 6.61222 3.29386 7.58929 3.29386 8.63356C3.29386 10.6069 4.2976 12.3488 5.824 13.3685C4.89173 13.3386 4.01386 13.0826 3.24693 12.657C3.24693 12.6816 3.24693 12.704 3.24693 12.7285C3.24693 15.4858 5.20746 17.7856 7.8112 18.3072C7.3344 18.4373 6.83093 18.5066 6.31146 18.5066C5.9456 18.5066 5.58826 18.4704 5.2416 18.4053C5.96586 20.6656 8.0672 22.3114 10.5568 22.3573C8.61013 23.8837 6.1568 24.7936 3.49013 24.7936C3.03146 24.7936 2.57813 24.7669 2.13226 24.7136C4.65066 26.3274 7.64053 27.2693 10.8544 27.2693C21.3205 27.2693 27.0421 18.5994 27.0421 11.0805C27.0421 10.8341 27.0368 10.5888 27.0261 10.3445C28.1387 9.54129 29.104 8.53969 29.8667 7.39942Z" fill="black"/>
</g>
</svg>
