<svg width="32" height="32" viewBox="0 0 32 32" fill="none" xmlns="http://www.w3.org/2000/svg">
<g id="Icon_creat">
<path id="Vector" d="M3.3935 26.3755C4.744 25.693 10.3475 23.891 10.3475 23.891H18.695C18.695 23.891 24.2945 25.689 25.6375 26.3735C27.59 27.3655 28 30.9995 28 30.9995H1C1 30.9995 1.4355 27.364 3.3935 26.3755Z" fill="#302C3B"/>
<path id="Vector_2" d="M10 24.973C10 26.639 14.5 30.393 14.5 30.393C14.5 30.393 19 26.639 19 24.973V20.9555H10V24.973Z" fill="#FFCC66"/>
<path id="Path_708_" d="M9.27002 21.7995C9.84402 23.194 11.765 25.3445 12.942 25.7895C13.6855 26.07 15.3145 26.07 16.057 25.7895C17.2345 25.344 19.1565 23.194 19.73 21.7995C20.2935 20.436 8.70852 20.436 9.27002 21.7995Z" fill="#E6B045"/>
<path id="Vector_3" d="M18.773 21.448C20.184 24.491 18.1665 25.9765 14.5005 30.3935V31.001C14.5005 31.001 19.602 24.5965 26.448 25.628C21.903 20.78 18.773 21.448 18.773 21.448Z" fill="#4E5E67"/>
<path id="Vector_4" d="M10.227 21.448C10.227 21.448 7.097 20.78 2.552 25.6275C9.3975 24.596 14.4995 31.0005 14.4995 31.0005V30.393C10.8335 25.976 8.816 24.4905 10.227 21.448Z" fill="#4E5E67"/>
<path id="Vector_5" d="M19.1235 21.558C19 26.094 16.5815 26.891 14.5005 30.393C14.5005 30.393 19.1685 24.4905 25.4665 25.19C22.015 21.6755 19.1235 21.558 19.1235 21.558Z" fill="#3AB0A2"/>
<path id="Vector_6" d="M3.53345 25.19C9.83145 24.491 14.4994 30.393 14.4994 30.393C12.4184 26.891 9.99995 26.094 9.87645 21.558C9.87645 21.558 6.98495 21.6755 3.53345 25.19Z" fill="#3AB0A2"/>
<path id="Path_707_" d="M22.72 12.697C21.4475 12.8505 20.5285 17.104 21.3295 18.227C21.442 18.3835 22.097 18.634 22.5835 17.643C22.853 17.094 23.6295 16.636 23.8705 15.5045C24.179 14.0545 23.987 12.5435 22.72 12.697Z" fill="#FFCC66"/>
<path id="Path_706_" d="M6.27994 12.697C7.55244 12.8505 8.47144 17.104 7.67044 18.227C7.55794 18.3835 6.90294 18.634 6.41544 17.643C6.14694 17.094 5.36944 16.636 5.12944 15.5045C4.81994 14.0545 5.01294 12.5435 6.27994 12.697Z" fill="#FFCC66"/>
<path id="Path_705_" d="M22.686 13.5115C22.354 13.616 21.9915 14.122 21.7955 14.9605C22.9555 14.7115 22.6655 16.641 21.657 16.677C21.667 16.8715 21.6795 17.0705 21.704 17.2805C22.1895 16.5765 22.6835 16.8585 23.173 15.811C23.613 14.867 23.5085 13.2545 22.686 13.5115Z" fill="#DB9D3A"/>
<path id="Path_704_" d="M7.20446 14.9585C7.00696 14.1205 6.64596 13.6155 6.31396 13.511C5.49246 13.254 5.38646 14.8665 5.82746 15.8105C6.31696 16.8585 6.81096 16.576 7.29696 17.28C7.32046 17.07 7.33396 16.87 7.34196 16.6755C6.34396 16.6295 6.05796 14.7235 7.20446 14.9585Z" fill="#DB9D3A"/>
<path id="Path_703_" d="M14.4995 4.517C8.98597 4.517 6.32947 8.6815 6.66147 14.4715C6.72797 15.6365 7.45247 19.436 8.13497 20.7995C8.83397 22.194 11.172 24.3445 12.604 24.7895C13.5095 25.07 15.4905 25.07 16.395 24.7895C17.8275 24.344 20.1665 22.194 20.8645 20.7995C21.549 19.436 22.2715 15.6375 22.337 14.4715C22.6715 8.6815 20.015 4.517 14.4995 4.517Z" fill="#FFCC66"/>
<path id="Path_702_" d="M20.4905 12.272C19.23 11.604 16.8165 11.572 15.9175 12.0375C15.724 12.1265 15.852 12.758 16.014 12.6985C17.266 12.2035 19.2875 12.1925 20.4605 12.7405C20.6165 12.8125 20.682 12.365 20.4905 12.272Z" fill="#966F42"/>
<path id="Path_701_" d="M8.50948 12.272C9.76998 11.604 12.1825 11.572 13.0825 12.0375C13.275 12.1265 13.148 12.758 12.986 12.6985C11.731 12.2035 9.71248 12.1925 8.53848 12.7405C8.38348 12.8125 8.31898 12.365 8.50948 12.272Z" fill="#966F42"/>
<path id="Path_700_" d="M15.988 18.054C15.831 17.9445 15.4615 18.1135 14.4995 18.1135C13.5395 18.1135 13.1695 17.9445 13.012 18.054C12.8235 18.187 13.1235 18.7845 14.4995 18.7845C15.8765 18.7845 16.177 18.187 15.988 18.054Z" fill="#DB9D3A"/>
<path id="Path_699_" d="M14.4995 20.323C13.26 19.9585 11.4225 20.496 11.4225 20.496C12.1215 21.2565 12.6345 22.243 14.4995 22.243C16.637 22.243 17.0005 21.123 17.5775 20.496C17.5775 20.4955 15.7395 19.9555 14.4995 20.323Z" fill="#DB9D3A"/>
<path id="Path_698_" d="M11.8835 20.6245C13.1845 21.7125 15.8095 21.72 17.117 20.6245C15.731 20.683 13.279 20.684 11.8835 20.6245Z" fill="white"/>
<path id="Path_697_" d="M13.273 14.5425C13.32 14.9075 13.072 15.339 12.3865 15.6635C11.951 15.8695 11.0435 16.1115 9.85353 15.61C9.32053 15.3855 8.80003 14.6865 8.84653 14.2985C9.49153 13.0835 12.6685 12.906 13.273 14.5425Z" fill="white"/>
<path id="Oval_110_" d="M11.1175 15.765C11.8056 15.765 12.3635 15.2071 12.3635 14.519C12.3635 13.8308 11.8056 13.273 11.1175 13.273C10.4293 13.273 9.87146 13.8308 9.87146 14.519C9.87146 15.2071 10.4293 15.765 11.1175 15.765Z" fill="url(#paint0_linear_6738_1056)"/>
<path id="Path_696_" d="M10.4935 14.496C10.4935 15.358 11.7415 15.358 11.7415 14.496C11.7415 13.696 10.4935 13.696 10.4935 14.496Z" fill="#1A1626"/>
<path id="Path_695_" d="M10.304 14.146C10.304 14.5075 10.8265 14.5075 10.8265 14.146C10.8265 13.8125 10.304 13.8125 10.304 14.146Z" fill="#AB968C"/>
<path id="Path_694_" d="M13.2791 14.5905C12.7721 12.9655 9.31606 13.2055 8.84656 14.2985C9.02006 12.899 12.8471 12.529 13.2791 14.5905Z" fill="#DB9D3A"/>
<path id="Path_693_" d="M15.727 14.5425C15.68 14.9075 15.927 15.339 16.6135 15.6635C17.049 15.8695 17.9555 16.1115 19.1455 15.61C19.6805 15.3855 20.2 14.6865 20.1535 14.2985C19.5085 13.0835 16.3305 12.906 15.727 14.5425Z" fill="white"/>
<path id="Oval_109_" d="M17.854 15.765C18.5422 15.765 19.1 15.2071 19.1 14.519C19.1 13.8308 18.5422 13.273 17.854 13.273C17.1659 13.273 16.608 13.8308 16.608 14.519C16.608 15.2071 17.1659 15.765 17.854 15.765Z" fill="url(#paint1_linear_6738_1056)"/>
<path id="Path_692_" d="M17.231 14.496C17.231 15.358 18.479 15.358 18.479 14.496C18.479 13.696 17.231 13.696 17.231 14.496Z" fill="#1A1626"/>
<path id="Path_691_" d="M17.0405 14.146C17.0405 14.5075 17.564 14.5075 17.564 14.146C17.564 13.8125 17.0405 13.8125 17.0405 14.146Z" fill="#AB968C"/>
<path id="Path_690_" d="M15.7209 14.5905C16.2269 12.9665 19.6809 13.199 20.1534 14.2985C19.9779 12.899 16.1529 12.529 15.7209 14.5905Z" fill="#DB9D3A"/>
<path id="Vector_7" d="M21.5425 5.8965C20.3355 4.266 18.1265 3.034 14.4995 3.034C10.8735 3.034 8.66549 4.266 7.45849 5.8965C5.74949 8.205 6.32949 15.896 7.09049 15.896C7.21049 15.896 7.22799 13.206 7.45849 11.3445C7.64499 9.83 8.00549 8.36 8.42049 8.12C9.68599 7.3865 12.1265 7.9355 14.4995 7.9355C16.8725 7.9355 19.314 7.3865 20.5805 8.12C20.9945 8.36 21.354 9.83 21.5425 11.3445C21.772 13.206 21.7895 15.896 21.9095 15.896C22.6705 15.896 23.2505 8.205 21.5425 5.8965Z" fill="#3AB0A2"/>
<path id="Vector_8" d="M8.84602 17.813C6.76302 14.5005 5.44552 8.7565 17.0405 7.8065C8.15252 -0.658496 0.180022 10.9755 8.84602 17.813Z" fill="#3AB0A2"/>
<path id="Vector_9" d="M9.86846 16.11C5.05496 8.1725 11.6475 3.855 15.8135 3.813C8.06846 -1.562 0.554963 10.5895 9.86846 16.11Z" fill="url(#paint2_linear_6738_1056)"/>
<path id="Vector_10" d="M14.3635 12.074C10.67 12.9695 8.28005 8.3455 11.0615 6.324C16.5065 2.3665 22.5355 8.6005 22.0975 7.041C21.03 3.241 18.2145 0.999496 14.6795 0.999496C2.36305 0.999496 6.87805 17.2185 14.3635 12.074Z" fill="url(#paint3_linear_6738_1056)"/>
<path id="Vector_11" d="M3.7295 31C3.7295 31 1 27.5155 1 24.129C1 19.542 8.7305 23.4815 13.218 31H3.7295Z" fill="url(#paint4_radial_6738_1056)"/>
<path id="Vector_12" d="M6.11797 25.403C5.73297 26.309 6.37598 25.978 6.78198 26.6905C7.01748 27.102 7.16847 27.1835 7.58197 27.026C7.84947 26.924 8.31247 27.182 8.51247 26.998C9.27547 26.296 6.73647 23.946 6.11797 25.403Z" fill="url(#paint5_radial_6738_1056)"/>
<path id="Vector_13" d="M10.704 29.9945C10.8545 29.8365 10.6805 29.561 10.6915 29.377C10.718 28.9345 11.0325 28.9515 10.745 28.464C10.4255 27.9235 9.47951 27.436 8.89151 27.708C7.99201 28.124 8.54401 28.7515 8.95301 29.4175C9.24301 29.8885 10.2285 30.4995 10.704 29.9945Z" fill="url(#paint6_radial_6738_1056)"/>
<path id="Vector_14" d="M4.87498 25.693C5.24098 25.068 5.32298 24.7085 4.55549 24.1775C3.79298 23.648 3.25099 23.279 2.50548 23.8515C1.60198 24.549 2.66098 24.8 2.88048 25.514C3.13498 26.3355 4.48448 26.359 4.87498 25.693Z" fill="url(#paint7_radial_6738_1056)"/>
<path id="Vector_15" d="M5.60347 27.969C4.90797 27.2955 4.24597 27.073 3.40697 27.844C2.94497 28.268 3.43447 28.337 3.54647 28.704C3.66347 29.092 3.30047 29.342 3.82097 29.5575C4.21447 29.7205 5.56697 30.3825 5.99847 29.877C6.42497 29.3795 5.94247 28.298 5.60347 27.969Z" fill="url(#paint8_radial_6738_1056)"/>
<path id="Vector_16" d="M28.7254 21.577L26.9859 21.1105C26.8824 19.9975 27.0874 18.8115 27.6664 18.167C28.3764 17.375 30.1354 17.537 29.8499 19.379C29.6784 20.4905 28.7254 21.577 28.7254 21.577Z" fill="#302C3B"/>
<path id="Vector_17" d="M27.3155 21.239L27.1454 21.201C27.1454 21.201 26.8945 19.867 27.496 18.6405C27.0535 20.193 27.3155 21.239 27.3155 21.239Z" fill="#1A1626"/>
<path id="Vector_18" d="M27.5135 21.2815L27.3435 21.2445C27.3435 21.2445 27.3365 19.6285 27.938 18.4015C27.496 19.9545 27.5135 21.2815 27.5135 21.2815Z" fill="#1A1626"/>
<path id="Vector_19" d="M27.7285 21.983L27.5565 21.945C27.5565 21.945 27.5505 20.33 28.152 19.103C27.71 20.655 27.7285 21.983 27.7285 21.983Z" fill="#1A1626"/>
<path id="Vector_20" d="M28.8854 15.792C28.8854 15.792 30.4029 16.3 29.8959 19.2955C29.7809 19.971 29.6429 18.306 29.2604 18.9325C29.0964 19.2005 29.0074 18.064 28.5204 18.552C28.1944 18.879 28.4169 17.7555 27.7109 18.214C27.0939 18.6145 28.9149 16.839 28.8854 15.792Z" fill="#E81C27"/>
<path id="Vector_21" d="M23.993 31C23.993 31 25.4805 26.437 26.2205 23.753C27.2655 23.1385 27.9655 24.2205 27.9655 24.2205C27.2265 26.905 26.1075 31 26.1075 31H23.993Z" fill="#7D625A"/>
<path id="Vector_22" d="M28.7255 21.577C28.6075 22.004 28.083 23.7935 27.9655 24.22C27.402 24.003 26.824 23.8245 26.2205 23.7525C26.3385 23.3255 26.868 21.5375 26.986 21.1105C27.59 21.1825 28.162 21.36 28.7255 21.577Z" fill="#B3C2C6"/>
</g>
<defs>
<linearGradient id="paint0_linear_6738_1056" x1="11.1172" y1="15.765" x2="11.1172" y2="13.2756" gradientUnits="userSpaceOnUse">
<stop stop-color="#A6694A"/>
<stop offset="1" stop-color="#4F2A1E"/>
</linearGradient>
<linearGradient id="paint1_linear_6738_1056" x1="17.8541" y1="15.765" x2="17.8541" y2="13.2756" gradientUnits="userSpaceOnUse">
<stop stop-color="#A6694A"/>
<stop offset="1" stop-color="#4F2A1E"/>
</linearGradient>
<linearGradient id="paint2_linear_6738_1056" x1="5.54926" y1="9.291" x2="15.8135" y2="9.291" gradientUnits="userSpaceOnUse">
<stop offset="0.0061" stop-color="#00D6B3"/>
<stop offset="0.2755" stop-color="#1BC4AB"/>
<stop offset="0.5587" stop-color="#32B5A4"/>
<stop offset="0.7394" stop-color="#3AB0A2"/>
</linearGradient>
<linearGradient id="paint3_linear_6738_1056" x1="7.0142" y1="7.04075" x2="22.1197" y2="7.04075" gradientUnits="userSpaceOnUse">
<stop offset="0.0061" stop-color="#00D6B3"/>
<stop offset="0.2558" stop-color="#16C8AD"/>
<stop offset="0.6241" stop-color="#30B6A5"/>
<stop offset="0.8424" stop-color="#3AB0A2"/>
</linearGradient>
<radialGradient id="paint4_radial_6738_1056" cx="0" cy="0" r="1" gradientUnits="userSpaceOnUse" gradientTransform="translate(7.1089 26.584) scale(5.3301)">
<stop stop-color="#FDDF98"/>
<stop offset="1" stop-color="#D6B768"/>
</radialGradient>
<radialGradient id="paint5_radial_6738_1056" cx="0" cy="0" r="1" gradientUnits="userSpaceOnUse" gradientTransform="translate(7.32712 26.018) scale(1.21125)">
<stop offset="0.2121" stop-color="#FF3B3B"/>
<stop offset="0.4183" stop-color="#F63131"/>
<stop offset="0.7712" stop-color="#DE1615"/>
<stop offset="1" stop-color="#CC0100"/>
</radialGradient>
<radialGradient id="paint6_radial_6738_1056" cx="0" cy="0" r="1" gradientUnits="userSpaceOnUse" gradientTransform="translate(9.63601 28.9073) scale(1.2533)">
<stop stop-color="#FFE357"/>
<stop offset="0.1836" stop-color="#FFDF51"/>
<stop offset="0.4321" stop-color="#FFD440"/>
<stop offset="0.7164" stop-color="#FFC123"/>
<stop offset="1" stop-color="#FFAA00"/>
</radialGradient>
<radialGradient id="paint7_radial_6738_1056" cx="0" cy="0" r="1" gradientUnits="userSpaceOnUse" gradientTransform="translate(3.64599 24.8633) scale(1.4033)">
<stop stop-color="#2289C7"/>
<stop offset="0.2907" stop-color="#1A7EB9"/>
<stop offset="0.842" stop-color="#066093"/>
<stop offset="1" stop-color="#005687"/>
</radialGradient>
<radialGradient id="paint8_radial_6738_1056" cx="0" cy="0" r="1" gradientUnits="userSpaceOnUse" gradientTransform="translate(4.68942 28.7099) scale(1.4165)">
<stop stop-color="#9BE022"/>
<stop offset="0.2668" stop-color="#91D422"/>
<stop offset="0.7474" stop-color="#78B423"/>
<stop offset="1" stop-color="#69A123"/>
</radialGradient>
</defs>
</svg>
