<svg width="28" height="28" viewBox="0 0 28 28" fill="none" xmlns="http://www.w3.org/2000/svg">
<g id="Icon_recruiting">
<path id="Shape" fill-rule="evenodd" clip-rule="evenodd" d="M18 8C18 10.2091 16.2091 12 14 12C11.7909 12 10 10.2091 10 8C10 5.79086 11.7909 4 14 4C16.2091 4 18 5.79086 18 8ZM20 23.5C23.0376 23.5 25.5 21.0376 25.5 18C25.5 14.9624 23.0376 12.5 20 12.5C16.9624 12.5 14.5 14.9624 14.5 18C14.5 21.0376 16.9624 23.5 20 23.5ZM4.5 19.5C4.5 18.0234 6.43804 14.1243 13.6527 14.0029C12.9225 15.16 12.5 16.5307 12.5 18C12.5 19.4706 12.9232 20.8423 13.6546 22H7C5.5 22 4.5 21 4.5 19.5ZM21 16C21 15.4477 20.5523 15 20 15C19.4477 15 19 15.4477 19 16V17H18C17.4477 17 17 17.4477 17 18C17 18.5523 17.4477 19 18 19H19V20C19 20.5523 19.4477 21 20 21C20.5523 21 21 20.5523 21 20V19H22C22.5523 19 23 18.5523 23 18C23 17.4477 22.5523 17 22 17H21V16Z" fill="white"/>
</g>
</svg>
