<svg width="32" height="32" viewBox="0 0 32 32" fill="none" xmlns="http://www.w3.org/2000/svg">
<g id="Icon_nonprof">
<path id="Vector" d="M19.3595 9.981C18.833 8.063 18.255 5.769 18.255 2.56C18.255 0.999504 16 0.943004 16 2.56V9.981H19.3595Z" fill="#EDB547"/>
<path id="Vector_2" d="M19.0305 10.074C18.4655 8.01652 17.9145 5.74102 17.9145 2.56302C17.9145 1.39852 16.3415 1.39552 16.3415 2.56052H15.66C15.66 0.478521 18.5965 0.481521 18.5965 2.56302C18.5965 5.65652 19.1365 7.88102 19.6885 9.89352L19.0305 10.074Z" fill="#D9A640"/>
<path id="Vector_3" d="M30.9999 31V24.4085C30.9999 24.4085 27.5749 22.205 25.4894 20.663C24.2864 19.774 18.0319 24.7 18.7139 26.37C19.0159 27.108 21.4979 31 21.4979 31H30.9999Z" fill="#018BC9"/>
<path id="Vector_4" d="M24.961 21.4835C24.961 21.4835 21.468 18.503 21.291 17.2835C21.05 15.6165 20.9795 14.2025 20.218 12.2385C19.4795 10.331 18.8765 8.26902 18.662 4.99752C18.5115 2.70602 16 2.96452 16 4.74402V23.3205C16 23.3205 16.3755 24.102 18.334 24.5245C18.844 24.634 19.4335 26.001 19.4335 26.001C21.3085 26.165 24.8855 22.967 24.961 21.4835Z" fill="url(#paint0_radial_6738_865)"/>
<path id="Vector_5" d="M19.6649 25.6905C19.4394 25.2135 18.9549 24.333 18.4149 24.217C16.6934 23.846 16.3164 23.1965 16.3114 23.1895L15.7014 23.494C15.7479 23.5885 16.2094 24.4385 18.2709 24.8825C18.4454 24.9225 18.8634 25.5435 19.1304 26.162C19.1304 26.162 20.3219 25.6565 19.6649 25.6905Z" fill="#D9A640"/>
<path id="Vector_6" d="M25.1834 21.24C23.8699 20.12 21.7439 18.0465 21.6289 17.2505C21.4099 15.729 21.3269 14.172 20.5354 12.131C19.8699 10.4115 19.2224 8.35649 19.0019 4.99049C18.8289 2.35699 15.6589 2.37349 15.6589 4.75949H16.3404C16.3404 3.29949 18.2064 3.29699 18.3209 5.03549C18.5484 8.49249 19.2144 10.607 19.8999 12.377C20.6394 14.2845 20.7474 15.9275 20.9534 17.3485C21.1274 18.5515 23.8694 21.004 24.5974 21.6365C25.0319 21.8985 25.1834 21.24 25.1834 21.24Z" fill="#D9A640"/>
<path id="Vector_7" d="M24.7655 20.742C24.5955 23.086 20.867 25.9635 18.828 25.697C18.662 29.494 29.6365 23.8935 24.7655 20.742Z" fill="#018BC9"/>
<path id="Vector_8" d="M16.3404 2.56052H15.6589V23.683H16.3404V2.56052Z" fill="#D9A640"/>
<path id="Vector_9" d="M12.6415 9.981C13.168 8.063 13.745 5.769 13.745 2.56C13.745 0.999504 16 0.943004 16 2.56V9.981H12.6415Z" fill="#EDB547"/>
<path id="Vector_10" d="M12.9694 10.074C13.5344 8.01652 14.0854 5.74102 14.0854 2.56302C14.0854 1.39852 15.6584 1.39552 15.6584 2.56052H16.3399C16.3399 0.478521 13.4034 0.481521 13.4034 2.56302C13.4034 5.65652 12.8644 7.88102 12.3114 9.89352L12.9694 10.074Z" fill="#D9A640"/>
<path id="Vector_11" d="M1 31V24.4085C1 24.4085 4.425 22.205 6.5105 20.663C7.714 19.774 13.9685 24.7 13.286 26.37C12.9855 27.108 10.502 31 10.502 31H1Z" fill="#018BC9"/>
<path id="Vector_12" d="M7.03906 21.4835C7.03906 21.4835 10.5331 18.503 10.7091 17.2835C10.9501 15.6165 11.0216 14.2025 11.7821 12.2385C12.5216 10.331 13.1236 8.26902 13.3381 4.99752C13.4896 2.70602 16.0001 2.96452 16.0001 4.74402V23.3205C16.0001 23.3205 15.6246 24.102 13.6661 24.5245C13.1561 24.634 12.5666 26.001 12.5666 26.001C10.6916 26.165 7.11506 22.967 7.03906 21.4835Z" fill="url(#paint1_radial_6738_865)"/>
<path id="Vector_13" d="M12.3361 25.6905C12.5616 25.2135 13.0456 24.333 13.5851 24.217C15.3076 23.846 15.6846 23.1965 15.6886 23.1895L16.2986 23.494C16.2531 23.5885 15.7911 24.4385 13.7291 24.8825C13.5546 24.9225 13.1376 25.5435 12.8706 26.162C12.8706 26.162 11.6791 25.6565 12.3361 25.6905Z" fill="#D9A640"/>
<path id="Vector_14" d="M6.8175 21.24C8.131 20.12 10.257 18.0465 10.371 17.2505C10.5905 15.729 10.6735 14.172 11.4645 12.131C12.13 10.4115 12.7775 8.35649 12.998 4.99049C13.171 2.35699 16.341 2.37349 16.341 4.75949H15.6595C15.6595 3.29949 13.7935 3.29699 13.679 5.03549C13.4525 8.49249 12.7865 10.607 12.1 12.377C11.3615 14.2845 11.2535 15.9275 11.0465 17.3485C10.8725 18.5515 8.1315 21.004 7.403 21.6365C6.969 21.8985 6.8175 21.24 6.8175 21.24Z" fill="#D9A640"/>
<path id="Vector_15" d="M7.23502 20.742C7.40552 23.086 11.134 25.9635 13.1725 25.697C13.3385 29.494 2.36352 23.8935 7.23502 20.742Z" fill="#018BC9"/>
<path id="Vector_16" d="M16.3404 2.56052H15.6589V23.683H16.3404V2.56052Z" fill="#D9A640"/>
</g>
<defs>
<radialGradient id="paint0_radial_6738_865" cx="0" cy="0" r="1" gradientUnits="userSpaceOnUse" gradientTransform="translate(20.8213 9.71224) scale(9.1533 14.443)">
<stop offset="0.4364" stop-color="#FFCC66"/>
<stop offset="0.6631" stop-color="#FDCA63"/>
<stop offset="0.8319" stop-color="#F8C35A"/>
<stop offset="0.9819" stop-color="#EEB749"/>
<stop offset="1" stop-color="#EDB547"/>
</radialGradient>
<radialGradient id="paint1_radial_6738_865" cx="0" cy="0" r="1" gradientUnits="userSpaceOnUse" gradientTransform="translate(11.1788 9.71199) rotate(180) scale(9.1537 14.4436)">
<stop offset="0.4364" stop-color="#FFCC66"/>
<stop offset="0.6631" stop-color="#FDCA63"/>
<stop offset="0.8319" stop-color="#F8C35A"/>
<stop offset="0.9819" stop-color="#EEB749"/>
<stop offset="1" stop-color="#EDB547"/>
</radialGradient>
</defs>
</svg>
