<svg width="61" height="36" viewBox="0 0 61 36" fill="none" xmlns="http://www.w3.org/2000/svg">
<g id="Logo">
<path id="Vector 2" d="M43.7722 8.21488L47.0963 22.0922C47.4606 23.6132 46.3077 25.075 44.7436 25.075H14.7642C11.9084 25.075 9.35643 23.2917 8.37471 20.6099L8.10242 19.8661C7.95795 19.4714 8.2501 19.0533 8.67037 19.0533H28.2492C28.4811 19.0533 28.669 18.8654 28.669 18.6335C28.669 16.8946 27.2594 15.4849 25.5204 15.4849H11.2535C8.3977 15.4849 5.84578 13.7016 4.86405 11.0198L4.61898 10.3503C4.4745 9.95566 4.76666 9.53759 5.18693 9.53759H23.7887C24.0206 9.53759 24.2085 9.34963 24.2085 9.11778C24.2085 7.37886 22.7989 5.96919 21.0599 5.96919H7.77009C4.91426 5.96919 2.36234 4.18584 1.38061 1.50405L1.16275 0.908916C1.01828 0.514259 1.31043 0.0961914 1.7307 0.0961914H33.4792C38.3749 0.0961914 42.6318 3.45381 43.7722 8.21488Z" fill="url(#paint0_linear_9753_319)"/>
<path id="Vector 3" d="M55.542 12.3453L60.2039 32.3662C60.5571 33.8834 59.4054 35.3341 57.8476 35.3341H26.5788C23.6172 35.3341 20.9958 33.4185 20.0962 30.5968L19.7793 29.6031C19.5928 29.0179 20.0295 28.4203 20.6437 28.4203H49.1965C50.7629 28.4203 51.9164 26.9543 51.5478 25.4318L47.3771 8.20492C47.2389 7.63399 47.6715 7.08423 48.2589 7.08423H48.9151C52.0785 7.08423 54.8246 9.26436 55.542 12.3453Z" fill="url(#paint1_linear_9753_319)"/>
</g>
<defs>
<linearGradient id="paint0_linear_9753_319" x1="24.1342" y1="0.0961914" x2="24.1342" y2="25.075" gradientUnits="userSpaceOnUse">
<stop stop-color="#FFC803"/>
<stop offset="1" stop-color="#FFA903"/>
</linearGradient>
<linearGradient id="paint1_linear_9753_319" x1="39.9448" y1="7.08423" x2="39.9448" y2="35.3341" gradientUnits="userSpaceOnUse">
<stop stop-color="#FF7421"/>
<stop offset="1" stop-color="#EC5901"/>
</linearGradient>
</defs>
</svg>
